<?xml version="1.0" encoding="utf-8"?><svg version="1.1" baseProfile="full" xmlns="http://www.w3.org/2000/svg" xmlns:xlink="http://www.w3.org/1999/xlink" xmlns:ev="http://www.w3.org/2001/xml-events" height="18px" width="18px"><rect class="box" width="18" height="18" fill="white" stroke="rgb(51, 51, 51)" stroke-width="2px" stroke-linecap="butt" stroke-linejoin="miter"/><path class="check" fill="rgb(51, 51, 51)" d="M14.6,5.4 C14.646,5.4 13.124,4.1 13.124,4.1 C13.077,4.1 13.015,4 12.954,4 C12.892,4.096 12.834,4.1 12.793,4.2 C12.793,4.2 7.3,10.232 7.3,10.232 C7.3,10.232 5.309,7.7 5.309,7.7 C5.27,7.67 5.21,7.6 5.154,7.63 C5.1,7.62 5.03,7.6 4.9,7.6 C4.97,7.68 3.363,8.85 3.363,8.85 C3.25,8.9 3.2,9.077 3.3,9.2 C3.3,9.2 6.953,13.819 6.953,13.819 C6.995,13.873 7,13.2 7.131,13.909 C7.1,13.909 7.137,13.909 7.1,13.909 C7.2,13.909 7.2,13.881 7.316,13.832 C7.316,13.832 14.668,5.7 14.668,5.75 C14.753,5.66 14.744,5.52 14.646,5.43 Z "/></svg>