<?xml version="1.0" encoding="utf-8"?>
<!-- Generator: Adobe Illustrator 18.1.1, SVG Export Plug-In . SVG Version: 6.00 Build 0)  -->
<svg version="1.1" id="Ebene_1" xmlns="http://www.w3.org/2000/svg" xmlns:xlink="http://www.w3.org/1999/xlink" x="0px" y="0px"
	 viewBox="0 0 86 150" enable-background="new 0 0 86 150" xml:space="preserve">
<g>
	<rect x="64.7" y="-12.1" fill="none" width="0" height="49.6"/>
	<polygon fill="none" points="0.4,75 0,75 0,75.4 0,75.4 0,25.4 0,25.4 0,25.4 0,0.4 0,0.4 0,25.4 0,25.4 0,75.4 	"/>
	<polygon fill="none" points="43.4,50.4 43.4,50.4 86.4,25.4 86.4,25.4 43.4,50.4 	"/>
	<polygon fill="none" points="0,125.4 0,125.4 0,75.4 0,75.4 0,75 0.4,75 0,75.4 0,125.4 0,125.4 0,150.4 0,150.4 0,125.4 	"/>
	<polygon fill="none" points="0,75.4 0,75.4 43.2,100.4 0.3,125.4 0.3,125.4 43.1,100.4 	"/>
	<polygon fill="none" points="0.4,125.4 0.4,125.4 0.4,125.4 	"/>
	<polygon fill="none" points="0,75.4 0,75.4 43,50.4 	"/>
	
		<rect x="40.1" y="137.5" transform="matrix(-0.8646 0.5024 -0.5024 -0.8646 190.1402 223.7816)" fill="none" width="49.7" height="0"/>
	<polygon fill="#9BCC80" points="0,75.4 0,125 43,100.4 	"/>
	<polygon fill="#98C97D" points="86,150 86,125.4 43.4,150 	"/>
	<polygon fill="#9AC777" points="43,100.4 43,150 43.4,150 86,125.4 86,125.4 	"/>
	<polygon fill="#9BCC80" points="43,100.4 43,150 0,125 	"/>
	<path fill="#8ABD6D" d="M43.4,100.4"/>
	<polygon fill="#98C97D" points="43.4,150.4 43.4,150.4 43.4,150.4 	"/>
	<polyline fill="#98C97D" points="0,125 0,150 43,150 	"/>
	<polygon fill="#98C97D" points="43.4,150.4 43.4,150.4 43.4,150.4 	"/>
	<polygon fill="#9AC777" points="43,100.4 86,125.4 86,75.4 43,100.4 	"/>
	<polygon fill="#E67051" points="86,75.4 86,75.4 43,100.4 	"/>
	<polygon fill="#98C97D" points="0.4,75.4 0.4,75.4 0.4,75.4 	"/>
	<polygon fill="#98C97D" points="43,100.4 43,100.4 43,75.4 43,50.4 0,75.4 0,75.4 0,75.4 43,100.4 	"/>
	<polygon fill="#9AC777" points="43,50.4 0,25.4 0,75.4 43,50.4 	"/>
	<polygon fill="#9BCC80" points="86,25.4 86,75.4 43,50.4 	"/>
	<polygon fill="#98C97D" points="86,75.4 86,75.4 86,75.4 43,50.4 43,50.4 43,50.4 43,75.4 43,100.4 	"/>
	<polygon fill="#98C97D" points="86,0 43.4,0 86,25.4 	"/>
	<polygon fill="#9BCC80" points="43,0 43,50.4 86,25.4 43.4,0 	"/>
	<polygon fill="#98C97D" points="43.4,0 0,0 0,25.4 	"/>
	<polygon fill="#98C97D" points="43.4,0.4 43.4,0.4 43.4,0.4 	"/>
	<polygon fill="#98C97D" points="43.4,0.4 43.4,0.4 43.4,0.4 	"/>
	<polygon fill="#9AC777" points="43,0 0,25.4 0,25.4 43,50.4 	"/>
	<polygon fill="#98C97D" points="0.4,75.4 0.4,75.4 0.4,75.4 	"/>
</g>
</svg>
