<?xml version="1.0" encoding="utf-8"?>
<!-- Generator: Adobe Illustrator 18.1.1, SVG Export Plug-In . SVG Version: 6.00 Build 0)  -->
<svg version="1.1" id="Ebene_1" xmlns="http://www.w3.org/2000/svg" xmlns:xlink="http://www.w3.org/1999/xlink" x="0px" y="0px"
	 viewBox="0 0 309.6 81.3" enable-background="new 0 0 309.6 81.3" xml:space="preserve">
<g>
	<g>
		<path fill="#81BD58" d="M108.5,63.8l-9-44.1c0.9-0.4,1.8-0.6,2.9-0.6c1.3,0,2.1,0.8,2.5,2.5l5.2,26.9c1.5,7.8,2.2,12,2.4,12.6
			c0.1,0.6,0.2,1,0.3,1.1s0.2,0.1,0.4,0.1l8.6-41.7c1-0.1,2.1-0.2,3.4-0.2c1.3,0,2.3,0.1,2.9,0.2l7.9,41.1c0.1,0.5,0.3,0.7,0.5,0.7
			c0.6-3.5,1.5-8.1,2.7-13.8l6.2-29c0.5-0.1,1.3-0.2,2.2-0.2c0.9,0,1.7,0.1,2.3,0.3l0.3,0.3L140,66.2c-1.1,0.2-2.6,0.3-4.4,0.3
			c-1.8,0-2.9-0.9-3.3-2.6l-7.3-38.3h-0.4c-1.6,8.1-2.7,14-3.5,17.5l-4.9,23.1c-1.1,0.2-2.6,0.3-4.4,0.3
			C110,66.5,108.9,65.6,108.5,63.8z"/>
		<path fill="#81BD58" d="M163.9,37.2v29.1c-0.6,0.1-1.4,0.2-2.3,0.2c-1,0-1.7-0.1-2.3-0.2V39.6c0-1.3-0.2-2.1-0.6-2.6
			c-0.4-0.5-1.1-0.7-2.2-0.7h-0.6c-0.1-0.6-0.2-1.2-0.2-1.7c0-0.5,0.1-1.1,0.2-1.8c1.3-0.2,2.4-0.3,3.3-0.3h0.5
			c1.3,0,2.4,0.4,3.1,1.2C163.5,34.6,163.9,35.7,163.9,37.2z M157.6,26c-0.3-0.6-0.5-1.5-0.5-2.5c0-1,0.2-1.8,0.5-2.4
			c0.6-0.5,1.6-0.7,2.9-0.7c1.3,0,2.3,0.2,2.8,0.7c0.3,0.5,0.5,1.3,0.5,2.4c0,1-0.2,1.9-0.5,2.5c-0.5,0.5-1.4,0.7-2.8,0.7
			C159.2,26.7,158.2,26.5,157.6,26z"/>
		<path fill="#81BD58" d="M174.3,34.8c0.4-1.2,1.1-2.1,2.1-2.6c2.5,1,4,3,4.7,6.1c2-4.1,5.1-6.1,9.2-6.1c0.9,0,1.9,0.1,3.1,0.3
			c0,1.9-0.4,3.4-1.1,4.4c-0.5,0-1.2-0.1-2.3-0.1c-3.9,0-6.7,2.2-8.6,6.5v22.9c-0.6,0.1-1.4,0.2-2.3,0.2c-1,0-1.7-0.1-2.3-0.2V41.8
			C176.7,38.9,175.9,36.6,174.3,34.8z"/>
		<path fill="#81BD58" d="M196.4,63.7c0.1-1.3,0.7-2.5,1.9-3.4c3.7,2.1,6.9,3.1,9.3,3.1c2.5,0,4.4-0.5,5.8-1.5c1.4-1,2.1-2.4,2.1-4
			c0-2.5-1.7-4.4-5.1-5.7l-3.9-1.5c-5.8-2.2-8.8-5.4-8.8-9.4c0-2.8,1.1-5.1,3.3-6.8c2.2-1.7,5-2.5,8.3-2.5c3.4,0,6.7,0.7,9.9,2.2
			c0,1.5-0.5,2.7-1.4,3.7c-3-1.4-5.7-2.1-8.1-2.1c-2.4,0-4.2,0.5-5.4,1.4c-1.2,1-1.8,2.1-1.8,3.5c0,1.3,0.4,2.4,1.3,3.2
			c0.8,0.8,2.2,1.6,4.1,2.3l4,1.6c5.6,2.2,8.3,5.5,8.3,9.8c0,3-1.2,5.3-3.5,7c-2.3,1.7-5.4,2.6-9.3,2.6
			C203.7,67.1,200,65.9,196.4,63.7z"/>
		<path fill="#81BD58" d="M234.8,37.2v29.1c-0.6,0.1-1.4,0.2-2.3,0.2s-1.7-0.1-2.3-0.2V39.6c0-1.3-0.2-2.1-0.6-2.6
			c-0.4-0.5-1.1-0.7-2.2-0.7h-0.6c-0.1-0.6-0.2-1.2-0.2-1.7c0-0.5,0.1-1.1,0.2-1.8c1.3-0.2,2.4-0.3,3.3-0.3h0.5
			c1.3,0,2.4,0.4,3.1,1.2C234.4,34.6,234.8,35.7,234.8,37.2z M228.5,26c-0.3-0.6-0.5-1.5-0.5-2.5c0-1,0.2-1.8,0.5-2.4
			c0.6-0.5,1.6-0.7,2.9-0.7c1.3,0,2.3,0.2,2.8,0.7c0.3,0.5,0.5,1.3,0.5,2.4c0,1-0.2,1.9-0.5,2.5c-0.5,0.5-1.4,0.7-2.8,0.7
			C230.1,26.7,229.1,26.5,228.5,26z"/>
		<path fill="#81BD58" d="M272.3,42.7V60c0,2.7,0.2,4.6,0.7,5.7c-0.7,0.7-1.7,1-2.9,1c-1.6,0-2.4-1-2.4-3.1V44.3
			c0-2.9-0.4-4.9-1.1-6.1c-0.7-1.2-2.1-1.8-4-1.8s-3.9,0.5-6,1.5c-2.1,1-3.7,2.3-5.1,3.9v24.4c-0.6,0.1-1.4,0.2-2.3,0.2
			c-0.9,0-1.7-0.1-2.3-0.2V32.9l0.4-0.4h1.8c1,0,1.7,0.3,2,0.8c0.3,0.5,0.5,1.3,0.5,2.5v1.4c1.5-1.5,3.3-2.7,5.5-3.6
			c2.2-0.9,4.3-1.4,6.5-1.4c3.1,0,5.3,1,6.7,2.9C271.6,37,272.3,39.6,272.3,42.7z"/>
		<path fill="#81BD58" d="M293.2,66.8c-3.7,0-6.6-1.5-8.6-4.6c-2-3.1-3-7.4-3-12.9s1.3-9.8,3.9-12.8c2.6-3,5.6-4.5,9.1-4.5
			c3.5,0,6.6,1.2,9.4,3.7c0.7-1.6,1.8-2.8,3.4-3.4c1,0.5,1.7,1.3,2.2,2.4c-1.3,1.3-1.9,3.8-1.9,7.5v21.8c0,6.2-1,10.6-3.1,13.1
			c-2.2,2.8-5.5,4.2-9.7,4.2c-4.2,0-8.2-0.8-11.8-2.3c0.1-1.5,0.5-2.7,1.4-3.7c3,1.5,5.8,2.2,8.5,2.2c2.6,0,4.6-0.3,5.9-0.9
			c1.3-0.6,2.3-1.4,2.9-2.5c1-2,1.6-4.6,1.6-7.8v-4.1C300.3,65.3,296.9,66.8,293.2,66.8z M303.3,57.4V39.5c-2.7-2.3-5.4-3.5-8.1-3.5
			c-2.6,0-4.8,1.1-6.4,3.4c-1.6,2.3-2.5,5.6-2.5,10.1s0.7,7.8,2.1,10c1.4,2.2,3.1,3.2,5.1,3.2s3.9-0.5,5.5-1.5
			C300.8,60.2,302.2,58.9,303.3,57.4z"/>
	</g>
	<g>
		<g>
			<path fill="#81BD58" d="M40.1,64l-1.7-2c0.2-0.2,5.5-4.6,12.9-7.2c7.5-2.7,16.2-1.5,16.6-1.5l-0.3,2.6c-0.1,0-8.4-1.1-15.4,1.4
				C45.2,59.7,40.2,64,40.1,64z"/>
		</g>
		<g>
			<path fill="#81BD58" d="M38.9,53.9c-1.3-0.4-13-3.8-15.1-8.1c-1.2-2.5-1.2-5.5-1.2-8.4c0-2.1,0-4.2-0.5-5.8
				c-1-3.5-2.7-4.5-2.7-4.6l1.3-2.3c0.3,0.2,2.7,1.6,4,6.2c0.6,2,0.6,4.3,0.6,6.5c0,2.6,0.1,5.3,1,7.3c1.2,2.5,8.9,5.4,13.4,6.7
				L38.9,53.9z"/>
		</g>
		<g>
			<path fill="#81BD58" d="M39.8,41.3c-0.5,0-0.8,0-0.9,0l0.2-2.6c0.1,0,5.3,0.3,9.2-1.8c4.1-2.2,11.7-9.1,11.8-9.2l1.8,2
				c-0.3,0.3-7.9,7.2-12.3,9.6C46,41.1,41.7,41.3,39.8,41.3z"/>
		</g>
		<g>
			<path fill="#81BD58" d="M40.1,71.1C39.6,71,28.8,70.3,24,69c-5-1.4-13.4-10.5-14.4-11.5l1.9-1.8c2.4,2.6,9.5,9.7,13.2,10.7
				c4.6,1.3,15.4,2,15.6,2L40.1,71.1z"/>
		</g>
		<g>
			<path fill="#81BD58" stroke="#1D1D1B" stroke-width="4" stroke-miterlimit="10" d="M64.1,63"/>
		</g>
		<g>
			<path fill="#81BD58" stroke="#1D1D1B" stroke-width="4" stroke-miterlimit="10" d="M40.2,74.4"/>
		</g>
		<g>
			<path fill="#81BD58" d="M40.2,79.2c-0.7,0-1.3-0.6-1.3-1.3c0-0.4-1.6-37.9-1.6-48c0-10.3,3.9-18,4.1-18.3
				c0.3-0.6,1.1-0.9,1.8-0.6c0.6,0.3,0.9,1.1,0.6,1.8c0,0.1-3.8,7.5-3.8,17.1c0,10,1.6,47.5,1.6,47.9C41.5,78.6,41,79.2,40.2,79.2
				C40.2,79.2,40.2,79.2,40.2,79.2z"/>
		</g>
		<g>
			<path fill="#81BD58" d="M44.5,13.6c-3.7,0-6.8-3-6.8-6.8s3-6.8,6.8-6.8c3.7,0,6.8,3,6.8,6.8S48.2,13.6,44.5,13.6z M44.5,2.6
				c-2.3,0-4.1,1.9-4.1,4.1s1.9,4.1,4.1,4.1s4.1-1.9,4.1-4.1S46.7,2.6,44.5,2.6z"/>
		</g>
		<g>
			<path fill="#81BD58" d="M73.2,62.1c-3.7,0-6.8-3-6.8-6.8s3-6.8,6.8-6.8c3.7,0,6.8,3,6.8,6.8S76.9,62.1,73.2,62.1z M73.2,51.2
				c-2.3,0-4.1,1.9-4.1,4.1c0,2.3,1.9,4.1,4.1,4.1c2.3,0,4.1-1.9,4.1-4.1C77.3,53.1,75.5,51.2,73.2,51.2z"/>
		</g>
		<g>
			<path fill="#81BD58" d="M16.1,28.8c-3.7,0-6.8-3-6.8-6.8s3-6.8,6.8-6.8s6.8,3,6.8,6.8S19.9,28.8,16.1,28.8z M16.1,17.9
				c-2.3,0-4.1,1.9-4.1,4.1s1.9,4.1,4.1,4.1s4.1-1.9,4.1-4.1S18.4,17.9,16.1,17.9z"/>
		</g>
		<g>
			<path fill="#81BD58" d="M64.5,31.3c-3.7,0-6.8-3-6.8-6.8s3-6.8,6.8-6.8c3.7,0,6.8,3,6.8,6.8S68.3,31.3,64.5,31.3z M64.5,20.4
				c-2.3,0-4.1,1.9-4.1,4.1s1.9,4.1,4.1,4.1c2.3,0,4.1-1.9,4.1-4.1S66.8,20.4,64.5,20.4z"/>
		</g>
		<g>
			<path fill="#81BD58" d="M6.8,59.4c-3.7,0-6.8-3-6.8-6.8s3-6.8,6.8-6.8s6.8,3,6.8,6.8S10.5,59.4,6.8,59.4z M6.8,48.5
				c-2.3,0-4.1,1.9-4.1,4.1s1.9,4.1,4.1,4.1s4.1-1.9,4.1-4.1S9.1,48.5,6.8,48.5z"/>
		</g>
	</g>
</g>
</svg>
