<?xml version="1.0" encoding="utf-8"?><!DOCTYPE svg PUBLIC "-//W3C//DTD SVG 1.1//EN" "http://www.w3.org/Graphics/SVG/1.1/DTD/svg11.dtd"><svg version="1.1" baseProfile="full" xmlns="http://www.w3.org/2000/svg" xmlns:xlink="http://www.w3.org/1999/xlink" xmlns:ev="http://www.w3.org/2001/xml-events"   height="17px"   width="17px" ><path fill="rgb( 203, 203, 203 )" d="M15.637,13.532 C15.637,13.532 11.811,9.70699999999999 11.811,9.70699999999999 C12.388,8.75999999999999 12.72,7.64800000000002 12.72,6.45699999999999 C12.72,2.99900000000002 9.72300000000001,0.00299999999999 6.26299999999998,0.00299999999999 C2.80399999999997,0.00299999999999 0,2.80700000000002 0,6.26499999999999 C0,9.72300000000001 2.99700000000001,12.719 6.45600000000002,12.719 C7.60599999999999,12.719 8.68400000000003,12.407 9.61000000000001,11.866 C9.61000000000001,11.866 13.457,15.712 13.457,15.712 C13.833,16.088 14.443,16.088 14.82,15.712 C14.82,15.712 15.774,14.758 15.774,14.758 C16.15,14.382 16.014,13.908 15.637,13.532 ZM1.92700000000002,6.26499999999999 C1.92700000000002,3.87 3.86900000000003,1.93000000000001 6.26299999999998,1.93000000000001 C8.65899999999999,1.93000000000001 10.793,4.06299999999999 10.793,6.45699999999999 C10.793,8.851 8.851,10.792 6.45600000000002,10.792 C4.06099999999998,10.792 1.92700000000002,8.65899999999999 1.92700000000002,6.26499999999999 Z "/></svg>