<svg version="1.1" id="wirsing_logo" xmlns="http://www.w3.org/2000/svg" xmlns:xlink="http://www.w3.org/1999/xlink" x="0px" y="0px"
	 viewBox="0 0 194 160" enable-background="new 0 0 194 160" xml:space="preserve">
  <path d="M99.4,113.9l-3-3.6c0.4-0.3,9.7-8.1,23-12.8c13.4-4.7,28.9-2.8,29.5-2.7l-0.6,4.7c-0.1,0-15-1.9-27.3,2.4
    C108.5,106.3,99.5,113.8,99.4,113.9z"/>
  <path d="M97.3,96c-2.4-0.7-23.2-6.7-26.9-14.5c-2.1-4.4-2.1-9.8-2.2-15c0-3.8-0.1-7.4-0.9-10.4
    c-1.7-6.2-4.7-8.1-4.9-8.2l2.3-4.1c0.5,0.3,4.8,2.8,7.1,11c1,3.6,1,7.6,1.1,11.6c0,4.7,0.1,9.5,1.7,13c2.1,4.4,15.8,9.7,23.9,12
    L97.3,96z"/>
  <path d="M98.9,73.5c-0.9,0-1.5,0-1.6,0l0.3-4.7c0.1,0,9.4,0.5,16.4-3.2c7.3-3.8,20.8-16.2,21-16.3l3.2,3.5
    c-0.6,0.5-14.2,12.9-22,17C109.8,73.1,102.2,73.5,98.9,73.5z"/>
  <path d="M99.3,126.5c-0.8-0.1-20-1.3-28.7-3.7c-8.9-2.5-23.9-18.6-25.6-20.5l3.5-3.2c4.3,4.7,17,17.3,23.4,19.1
    c8.2,2.3,27.5,3.5,27.7,3.5L99.3,126.5z"/>
  <path d="M99.5,141c-1.3,0-2.3-1-2.3-2.3c0-0.7-2.9-67.5-2.9-85.4c0-18.4,6.9-32.1,7.2-32.7c0.6-1.2,2-1.6,3.2-1
    c1.2,0.6,1.6,2,1,3.2C105.6,23,99,36.1,99,53.3c0,17.8,2.8,84.5,2.9,85.2c0.1,1.3-1,2.4-2.3,2.5C99.6,141,99.5,141,99.5,141z"/>
  <circle cx="107" cy="12" r="10" stroke="black" stroke-width="5" fill="none" />
  <circle cx="158" cy="98" r="10" stroke="black" stroke-width="5" fill="none" />
  <circle cx="57" cy="39" r="10" stroke="black" stroke-width="5" fill="none" />
  <circle cx="143" cy="43" r="10" stroke="black" stroke-width="5" fill="none" />
  <circle cx="40" cy="93" r="10" stroke="black" stroke-width="5" fill="none" />
</svg>
